<?xml version="1.0" encoding="UTF-8" standalone="no"?>
<svg width="18px" height="26px" viewBox="0 0 30 26" version="1.1" xmlns="http://www.w3.org/2000/svg" xmlns:xlink="http://www.w3.org/1999/xlink">
    <!-- Generator: Sketch 39.1 (31720) - http://www.bohemiancoding.com/sketch -->
    <title>refresh</title>
    <desc>Created with Sketch.</desc>
    <defs></defs>
    <g id="Page-1" stroke="none" stroke-width="1" fill="none" fill-rule="evenodd">
        <g id="Evil-Icons" transform="translate(-30.000000, -432.000000)" fill="rgb(158, 158, 158)">
            <g id="Icon-Refresh" transform="translate(30.000000, 432.000000)">
                <path d="M15,25.93 C7.871,25.93 2.07,20.129 2.07,13 C2.07,9.846 3.218,6.809 5.303,4.447 L6.698,5.677 C4.913,7.699 3.93,10.3 3.93,13 C3.93,19.104 8.896,24.07 15,24.07 C16.61,24.07 18.162,23.732 19.612,23.066 L20.388,24.757 C18.692,25.535 16.879,25.93 15,25.93" id="Fill-77"></path>
                <path d="M24.637,21.62 L23.251,20.38 C25.069,18.349 26.07,15.728 26.07,13 C26.07,6.896 21.104,1.93 15,1.93 C13.391,1.93 11.839,2.268 10.388,2.933 L9.613,1.243 C11.309,0.464 13.121,0.07 15,0.07 C22.129,0.07 27.93,5.871 27.93,13 C27.93,16.186 26.761,19.248 24.637,21.62" id="Fill-78"></path>
                <polyline id="Fill-79" points="8 12 6 12 6 6 0 6 0 4 8 4 8 12"></polyline>
                <polyline id="Fill-80" points="30 22 22 22 22 14 24 14 24 20 30 20 30 22"></polyline>
            </g>
        </g>
    </g>
</svg>
